<?xml version="1.0" encoding="UTF-8"?>
<svg width="106px" height="97px" viewBox="0 0 106 97" version="1.1" xmlns="http://www.w3.org/2000/svg" xmlns:xlink="http://www.w3.org/1999/xlink">
    <!-- Generator: Sketch 64 (93537) - https://sketch.com -->
    <title>Square-600</title>
    <desc>Created with Sketch.</desc>
    <g id="Square-600" stroke="none" stroke-width="1" fill="none" fill-rule="evenodd">
        <g id="Group-3" transform="translate(1.000000, 0.000000)">
            <circle id="Oval" fill="#FFFBC6" cx="44" cy="44" r="44"></circle>
            <path d="M52,97 C76.300529,97 96,77.300529 96,53 C96,28.699471 75.0783068,9 50.7777778,9 C26.4772488,9 8,28.699471 8,53 C8,77.300529 27.699471,97 52,97 Z" id="Oval" fill="#E1DEFA"></path>
        </g>
        <path d="M74.1664062,46.896875 C74.5015625,46.6304687 75,46.8796875 75,47.3007812 L75,64.875 C75,67.1523438 73.1523438,69 70.875,69 L35.125,69 C32.8476562,69 31,67.1523438 31,64.875 L31,47.309375 C31,46.8796875 31.4898437,46.6390625 31.8335937,46.9054687 C33.7585938,48.4007813 36.3109375,50.3 45.0765625,56.6679688 C46.8898437,57.9914062 49.9492188,60.7757812 53,60.7585938 C56.0679687,60.784375 59.1875,57.9398438 60.9320313,56.6679688 C69.6976562,50.3 72.2414062,48.3921875 74.1664062,46.896875 Z M53,58 C54.99375,58.034375 57.8640625,55.490625 59.3078125,54.4421875 C70.7117187,46.1664063 71.5796875,45.4445312 74.209375,43.3820312 C74.7078125,42.9953125 75,42.39375 75,41.7578125 L75,40.125 C75,37.8476562 73.1523438,36 70.875,36 L35.125,36 C32.8476562,36 31,37.8476562 31,40.125 L31,41.7578125 C31,42.39375 31.2921875,42.9867188 31.790625,43.3820312 C34.4203125,45.4359375 35.2882812,46.1664063 46.6921875,54.4421875 C48.1359375,55.490625 51.00625,58.034375 53,58 Z" id="Shape" fill="#2076BA" fill-rule="nonzero"></path>
    </g>
</svg>